<?xml version="1.0" encoding="UTF-8" standalone="no"?>
<!-- Created with Inkscape (http://www.inkscape.org/) -->

<svg
   xmlns:dc="http://purl.org/dc/elements/1.1/"
   xmlns:cc="http://creativecommons.org/ns#"
   xmlns:rdf="http://www.w3.org/1999/02/22-rdf-syntax-ns#"
   xmlns:svg="http://www.w3.org/2000/svg"
   xmlns="http://www.w3.org/2000/svg"
   xmlns:sodipodi="http://sodipodi.sourceforge.net/DTD/sodipodi-0.dtd"
   xmlns:inkscape="http://www.inkscape.org/namespaces/inkscape"
   id="svg2"
   version="1.1"
   inkscape:version="0.48.3.1 r9886"
   width="744.09448"
   height="1052.3622"
   xml:space="preserve"
   sodipodi:docname="inscrits_taller.svg"><metadata
     id="metadata8"><rdf:RDF><cc:Work
         rdf:about=""><dc:format>image/svg+xml</dc:format><dc:type
           rdf:resource="http://purl.org/dc/dcmitype/StillImage" /><dc:title /></cc:Work></rdf:RDF></metadata><defs
     id="defs6">





























































































































</defs><sodipodi:namedview
     pagecolor="#ffffff"
     bordercolor="#666666"
     borderopacity="1"
     objecttolerance="10"
     gridtolerance="10"
     guidetolerance="10"
     inkscape:pageopacity="0"
     inkscape:pageshadow="2"
     inkscape:window-width="1440"
     inkscape:window-height="849"
     id="namedview4"
     showgrid="false"
     showguides="true"
     inkscape:guide-bbox="true"
     inkscape:zoom="2.3548227"
     inkscape:cx="496.87669"
     inkscape:cy="954.40654"
     inkscape:window-x="-1"
     inkscape:window-y="-10"
     inkscape:window-maximized="1"
     inkscape:current-layer="g12" /><g
     id="g10"
     inkscape:groupmode="layer"
     inkscape:label="SR-Aula7"
     transform="matrix(1.25,0,0,-1.25,0,1052.3622)"><g
       id="g12"
       transform="translate(-44.201255,-107.62045)"><path
   style="fill:#b3b3b3;fill-opacity:1;fill-rule:evenodd;stroke:none"
   d="M 556.46875 935.375 C 553.45674 935.50178 548.5524 935.13615 542.8125 937.25 C 542.01726 937.54256 539.80593 937.74801 536.25 938.6875 C 534.9033 939.04346 532.09144 939.2412 528.1875 941.40625 C 528.1152 941.34611 526.0528 941.67267 522.375 943.46875 C 521.84035 943.72962 521.31282 944.01334 520.84375 944.375 C 521.06651 944.18808 521.23188 944.05162 521.34375 943.96875 C 521.25211 944.02564 521.1268 944.09812 520.96875 944.1875 C 520.81156 944.27609 520.65131 944.39837 520.5 944.5 C 520.83794 944.25537 520.80449 944.23792 520 944.8125 C 519.96388 944.8385 519.939 944.8465 519.90625 944.875 C 519.84064 944.92211 519.78425 944.98413 519.71875 945.03125 C 519.68921 945.0565 519.62312 945.09975 519.59375 945.125 C 518.85146 945.65895 518.03093 946.26394 517.0625 947.78125 C 516.68841 948.36884 516.39584 949.25325 516.15625 950.21875 C 515.41397 950.38373 514.75859 950.58221 514.25 950.71875 C 514.16425 950.73738 514.08575 950.75925 514 950.78125 C 513.84616 950.8195 513.6443 950.83113 513.4375 950.875 C 513.11889 950.94166 512.7825 951.015 512.6875 951.03125 C 512.68075 951.03125 512.65 951.035 512.65625 951.03125 C 512.11489 951.04994 510.38102 950.91802 507.53125 951.5625 C 505.93822 951.92496 503.37766 952.58329 501.25 955.4375 C 501.01041 955.7577 500.90286 956.07629 500.71875 956.40625 C 499.91089 956.84104 499.06948 957.43035 498.21875 958.28125 C 497.42771 958.7323 496.41012 959.38756 495.4375 960.375 C 493.02738 962.8253 491.53826 965.96035 492.3125 970.09375 C 492.45036 970.81788 492.77545 971.51739 493.15625 972.21875 L 491.125 971.34375 C 490.72149 971.09588 490.14455 970.75123 489.09375 970.09375 C 487.72771 969.23635 485.80669 967.98344 486.1875 968.25 C 483.51425 966.37023 482.52544 966.45858 481.46875 966.15625 C 481.2485 966.09288 481.29466 966.117 481.09375 966.0625 L 478.78125 964.75 C 478.40969 964.53463 478.02599 964.34922 477.625 964.1875 C 477.625 964.1875 468.96114 960.74154 463.75 959.0625 C 457.27117 956.97629 450.67123 956.85675 449.90625 956.84375 L 445 956.21875 C 444.4914 956.14887 443.98406 956.10875 443.46875 956.125 C 443.46875 956.125 441.40855 956.20563 438.84375 956.28125 C 435.09701 956.38934 431.84375 957.5 431.84375 957.5 C 431.8145 957.513 431.81075 957.51825 431.78125 957.53125 C 431.56772 957.58814 430.85405 957.76009 429.09375 958.125 C 424.47694 959.08074 421.44946 960.46598 420.21875 961.0625 L 417.9375 961.84375 C 415.64256 962.6085 413.71071 964.29521 412.71875 966.4375 L 409.90625 967 L 407.28125 967.53125 C 404.89719 968.01969 402.75425 969.47799 401.5 971.5 C 399.86833 972.05264 399.28915 972.9029 398.8125 973.3125 C 398.09039 973.93423 397.77575 974.32224 397.5 974.65625 C 397.22091 974.98946 397.05421 975.26882 396.90625 975.46875 C 396.84067 975.55734 396.792 975.65537 396.75 975.71875 L 396.71875 975.71875 C 394.79115 978.44538 394.71027 982.24973 396.5 985.0625 L 396.96875 985.875 C 397.1066 986.07166 397.25158 986.28509 397.40625 986.46875 L 397.625 987.3125 C 398.20336 989.58237 399.77339 991.59759 401.875 992.75 C 403.72692 995.00688 406.81546 996.26701 409.78125 995.96875 C 412.42423 996.94968 415.55163 996.61106 417.90625 995.09375 L 418.5625 994.96875 C 419.62338 994.72088 420.63512 994.25276 421.53125 993.65625 C 422.52656 993.63349 423.47496 993.50313 424.4375 993.28125 C 425.84558 993.42673 426.73352 993.26892 427.71875 993.0625 C 424.20487 997.31944 421.33319 998.04792 417.46875 998.34375 C 412.62161 998.70866 405.88655 996.94813 397.5625 996.875 C 382.95299 996.74821 350.88676 999.49405 328.78125 1000.0312 C 307.32807 1000.5514 285.19451 996.82137 261.71875 996.875 C 238.37496 996.9327 215.93607 1000.3238 194.4375 1000.375 C 172.93892 1000.4254 150.53213 997.13387 127.1875 997.1875 C 104.41115 997.24195 86.366561 1000.0911 65.53125 1000.2812 C 64.974541 1000.2889 48.534211 999.96475 33.03125 999.65625 L 33.03125 999.71875 C 46.592128 1000.0089 60.329026 1000.2883 59.8125 1000.2812 C 45.896817 1000.11 38.132966 999.97954 33.03125 999.96875 L 33.03125 1008.0938 C 41.690662 1008.101 50.882381 1008.3395 60.28125 1008.9062 C 60.63264 1008.9062 60.985649 1008.9375 61.34375 1008.9375 C 61.783412 1008.9412 62.243649 1008.9412 62.6875 1008.9375 C 63.1238 1008.9412 63.566221 1008.9412 64 1008.9375 C 64.363998 1008.9375 64.701024 1008.9062 65.0625 1008.9062 C 86.994834 1008.76 105.15863 1005.8013 127.21875 1005.75 C 149.64035 1005.6964 172.0159 1009.0536 194.4375 1009 C 216.8591 1008.9464 239.29715 1005.5536 261.71875 1005.5 C 284.14035 1005.4488 306.3716 1009.2056 329 1008.6562 C 351.63176 1008.1069 384.29605 1005.3854 397.5 1005.5 C 410.70398 1005.617 425.90107 1013.1225 438.09375 993.6875 C 438.82595 991.98245 440.4617 988.1326 440.21875 987.25 C 439.90686 986.10978 437.21831 982.64851 433.53125 982.34375 C 429.84 982.04224 429.53125 981.40625 429.53125 981.40625 C 429.53125 981.40625 428.5037 981.0457 428.03125 981.5 C 427.55797 981.95674 428.26842 982.875 427.875 982.875 C 427.48411 982.875 425.9375 983.0625 425.9375 983.0625 C 425.9375 983.0625 427.40658 984.39237 426.9375 984.46875 C 426.46422 984.54436 424.73929 984.67976 423.71875 984.375 C 422.69738 984.07349 422.6124 985.64851 421.90625 985.34375 C 421.20096 985.04224 420.81546 983.71875 420.1875 983.71875 C 419.56039 983.71875 418.78125 983.84375 418.78125 983.84375 L 417.65625 983.46875 L 417.5 984.9375 L 415.5625 985.125 L 416.5 986.59375 L 414.21875 987.09375 L 412.9375 987.9375 L 411.3125 987.09375 L 408.84375 987.40625 L 409.03125 985.25 C 409.03125 985.25 407.92551 984.28899 407.53125 984.59375 C 407.13784 984.89851 406.25 985.25 406.25 985.25 L 405.96875 984.15625 L 408.9375 982.875 L 409.125 981.59375 L 407.75 980.59375 L 405.5 980.5 L 404.53125 981.34375 L 404.0625 980.59375 C 404.0625 980.59375 404.71601 979.59375 405.03125 979.59375 C 405.34649 979.59375 406.71875 978.625 406.71875 978.625 L 409.125 977.40625 L 409.125 975.96875 L 411.6875 975.40625 L 414.65625 974.78125 C 414.65625 974.78125 416.71601 974.36456 417.03125 974.59375 C 417.34398 974.82213 420.09375 975.09375 420.09375 975.09375 C 420.09375 975.09375 421.625 974.91262 421.625 974.6875 C 421.625 974.45832 422.21992 973.58603 421.75 973.28125 C 421.27672 972.97974 420.875 972.84375 420.875 972.84375 L 419.71875 973.25 L 419.53125 972.75 L 421.25 971.9375 L 422.3125 970.875 L 420.65625 970.53125 L 420.84375 969.96875 L 423.40625 969.09375 C 423.40625 969.09375 426.5722 967.43905 430.96875 966.53125 C 435.0905 965.6771 435.135 965.51875 435.125 965.5 C 435.125 965.5 436.5029 964.95137 439.09375 964.875 C 441.68461 964.79863 443.8125 964.75 443.8125 964.75 L 448.9375 965.4375 C 448.9375 965.4375 456.43067 965.77701 460.90625 967.21875 C 465.38182 968.65967 474.28125 972.1875 474.28125 972.1875 L 477.625 974.0625 C 477.625 974.0625 480.07416 974.58121 480.9375 975.1875 C 481.80084 975.79702 486.9375 978.9375 486.9375 978.9375 L 490.4375 980.46875 C 490.42075 980.54192 490.391 980.58312 490.375 980.65625 C 492.83471 983.2187 498.20421 990.10672 506.96875 993.6875 C 516.71851 997.22682 525.82251 1004.4079 541.0625 993.6875 C 546.01389 990.60166 551.09465 985.22801 551.46875 980.40625 C 551.6394 978.23145 549.38541 977.23449 549.625 975.03125 C 549.81835 973.24411 548.80042 972.15779 547.3125 971.25 C 545.2277 969.98299 544.57986 970.67651 542.34375 970.375 C 540.5868 970.14013 538.96378 969.25873 537.1875 969.09375 C 536.75365 969.37006 538.20859 969.82729 537.125 970.65625 C 536.31126 971.27797 535.35841 971.39137 534.34375 971.3125 C 533.96631 972.5405 538.15306 971.74042 535.5 973.5625 C 534.00281 974.59135 532.45401 973.89136 530.9375 973.46875 C 529.31171 973.0177 529.86446 975.27285 527.625 974.84375 C 526.44978 974.61863 525.1005 974.08454 525.28125 972.6875 C 524.05306 973.24257 522.93768 972.561 521.71875 972.4375 C 523.50259 974.4692 519.71433 974.3765 518.59375 974.5 C 518.54836 975.21762 522.86874 975.80917 520.28125 976.84375 C 519.5852 977.12333 517.12774 976.69794 517 977.4375 C 516.81252 978.52982 516.223 978.51538 514.96875 978.5 C 513.84902 978.48374 512.59034 978.19242 511.6875 977.5 C 511.01751 978.27452 510.04254 978.64156 509.03125 978.375 C 507.17931 977.88575 506.44096 975.8585 508.4375 975.09375 C 508.44125 975.07512 508.42875 975.0565 508.4375 975.03125 L 508.5 975.03125 C 508.49625 975.0435 508.50375 975.0495 508.5 975.0625 C 508.52287 975.05263 508.53638 975.0375 508.5625 975.03125 C 508.428 972.4501 502.66065 976.96015 503.59375 973.125 C 504.19734 970.63 509.1614 971.91213 508.28125 969.15625 C 507.81805 967.70508 506.10106 967.57896 504.78125 967.71875 C 503.18824 968.42986 505.43308 969.97663 502.875 969.875 C 500.66495 969.78641 500.56599 967.6392 501.84375 966.34375 C 502.80881 965.36281 503.60484 965.56862 504.34375 964.5625 C 505.1348 963.48322 506.95566 963.32605 508.125 962.875 C 509.29349 961.64945 507.11776 960.51489 509.53125 959.96875 C 510.79473 959.68355 512.15299 959.72013 513.4375 959.625 C 514.42609 959.54616 516.53925 959.02925 516.625 959 C 517.19664 958.84477 517.74086 958.68363 518.3125 958.5625 C 520.09214 958.23254 520.40207 958.20444 523.46875 958.9375 C 524.61201 959.17887 525.8904 959.23764 526.46875 958.40625 C 526.79071 957.94544 527.33695 956.75537 526.25 956.65625 C 526.40131 956.69444 524.02794 957.27275 523.5 957.25 C 522.05159 957.14841 523.30457 955.90286 523.59375 955.6875 C 523.88209 955.46806 524.96119 955.03238 525.6875 954.78125 L 525.71875 954.90625 L 525.75 954.78125 C 526.43596 954.54638 527.04998 954.24627 527.4375 953.65625 C 527.34166 953.1605 522.94804 953.41271 525.1875 951.8125 C 525.21675 951.79388 525.28125 951.78175 525.28125 951.75 C 525.29737 951.74025 525.29575 951.73125 525.3125 951.71875 C 526.00183 951.3441 526.2405 951.25503 526.375 951.125 C 528.35471 950.16031 530.66029 949.92059 532.59375 948.84375 C 534.1666 947.96765 536.67441 947.49819 538.5625 947 C 541.01549 946.35228 543.61593 946.1606 546 945.28125 C 549.21798 944.09388 553.39542 944.14629 556.84375 944 C 557.0371 943.99025 557.24751 943.9375 557.4375 943.9375 C 560.31754 943.9375 562.9603 944.8225 565.65625 944.8125 C 571.27761 944.79056 576.39639 945.38244 581.84375 946.90625 C 587.09776 948.37563 592.27385 950.16639 597.34375 952.125 L 597.34375 951.5 C 602.60785 953.47812 607.34375 955.3125 607.34375 955.3125 L 612.5625 958.21875 C 612.5625 958.21875 616.36952 959.08201 617.71875 960.03125 C 619.06884 960.98049 627.0625 965.9375 627.0625 965.9375 L 631.90625 967.96875 C 632.20132 968.25726 632.445 968.49625 632.4375 968.53125 C 636.28008 972.53381 644.74765 983.34366 658.4375 988.9375 C 667.39539 992.18831 691.05908 1006.1258 701.46875 1006.4688 L 701.4375 1006.5625 C 705.81221 1006.9875 710.19538 1007.4094 714.5625 1007.8125 C 718.22014 1007.9807 721.94844 1007.9714 725.53125 1007.7812 C 729.35029 1006.5939 727.78266 999.27038 725.75 999.53125 C 723.96363 999.75635 721.40621 999.62975 720.5 999.6875 C 714.90469 999.19826 709.21568 998.64882 703.53125 998.09375 C 703.51188 998.08725 703.48888 998.0725 703.46875 998.0625 C 702.9072 997.95114 702.32164 997.885 701.75 997.875 C 701.67184 997.875 698.8365 997.21176 695.5 995.65625 C 692.16096 994.10399 688.12111 991.86948 684.0625 989.46875 C 676.05959 984.73881 668.91049 983.6161 661.90625 981 C 651.06955 976.57157 644.19271 968.23889 639.375 963.15625 C 639.16147 962.89536 639.0705 962.83013 638.96875 962.71875 C 638.9292 962.67811 638.84875 962.5695 638.8125 962.53125 C 638.55274 962.25819 638.40284 962.08749 638.21875 961.90625 C 637.43359 961.13825 636.49012 960.5318 635.46875 960.09375 L 631.25 958.28125 C 630.77084 957.98299 629.56578 957.23316 627.75 956.09375 C 625.60551 954.75117 622.8165 952.97637 622.9375 953.0625 C 620.0583 951.0405 618.70179 950.9571 617.25 950.53125 C 616.75402 950.38578 616.35544 950.28587 615.96875 950.1875 L 611.78125 947.84375 C 611.42985 947.64057 611.0337 947.49572 610.65625 947.34375 C 610.65625 947.34375 605.93266 945.47531 600.59375 943.46875 C 599.51604 943.0689 598.37127 942.849 597.21875 942.875 C 593.01217 941.32517 588.75039 939.89156 584.34375 938.65625 C 578.05574 936.89756 571.88175 936.1935 565.59375 936.21875 C 564.87416 936.222 562.14676 935.375 557.4375 935.375 C 557.17185 935.3685 556.92274 935.35875 556.65625 935.375 C 556.64029 935.37825 556.45187 935.40625 556.46875 935.40625 L 556.46875 935.375 z M 426.71875 962.71875 C 426.67925 962.82034 426.65787 962.92962 426.625 963.03125 C 426.64087 962.97761 426.6395 962.89738 426.65625 962.84375 C 426.6755 962.786 426.6995 962.7765 426.71875 962.71875 z M 504.125 962.84375 C 504.16125 962.8375 504.17162 962.8375 504.1875 962.84375 C 504.2405 962.85912 504.24025 962.937 504.125 962.96875 C 504.06616 962.985 503.83837 963.01262 503.75 963.03125 C 503.78614 963.01587 503.90387 962.91925 503.9375 962.90625 C 504.01561 962.87788 504.07875 962.85 504.125 962.84375 z M 541.65625 979.71875 C 541.79075 980.04871 541.89339 980.16119 542.03125 980.4375 C 541.34865 981.2559 539.07709 984.70438 536.25 986.46875 C 536.10878 986.55165 535.98161 986.65813 535.84375 986.75 C 529.6667 991.09309 526.79516 991.11758 523.46875 990.5625 C 520.81231 990.1212 517.34783 988.58204 513.1875 986.90625 C 513.72299 986.95339 514.35785 987.05375 514.84375 987.0625 L 514.875 987.0625 C 515.40714 987.069 516.43392 987.61311 519.625 986.40625 C 520.09827 986.22907 520.5944 985.87053 521.09375 985.5625 C 521.66119 985.49911 522.43662 985.34519 523.6875 984.84375 C 524.38355 984.56417 525.22611 984.11825 526.25 983.34375 C 528.02712 983.62333 530.39136 983.48565 532.4375 982.625 C 534.64082 982.82168 538.06876 982.37195 540.65625 980.59375 C 540.95215 980.39382 541.33429 979.97231 541.65625 979.71875 z "
   transform="matrix(0.8,0,0,-0.8,44.201255,949.51021)"
   id="path66" /><path
   d="m 73.899029,926.16625 c -2.398687,0 -4.398053,-4.06618 -4.398053,-8.95033 l 0,-762.64818 c 0,-4.8841 1.999366,-8.98297 4.398053,-8.98297 l 0.470007,0 0,770.67976 547.050804,0 0,-770.67976 0.47004,0 c 2.4005,0 4.41593,4.09887 4.41593,8.98297 l 0,762.64818 c 0,4.88415 -2.01543,8.95033 -4.41593,8.95033 l -547.990851,0 z"
   style="fill:#b3b3b3;fill-opacity:1;fill-rule:nonzero;stroke:none"
   id="path68"
   inkscape:connector-curvature="0" /><text
   xml:space="preserve"
   style="font-size:32px;font-style:normal;font-weight:normal;line-height:125%;letter-spacing:0px;word-spacing:0px;fill:#000000;fill-opacity:1;stroke:none;font-family:Sans"
   x="92.131279"
   y="-855.78979"
   id="text3203"
   sodipodi:linespacing="125%"
   transform="scale(1,-1)"><tspan
     sodipodi:role="line"
     id="tspan3205"
     x="92.131279"
     y="-855.78979"
     style="font-size:16px;font-style:normal;font-variant:normal;font-weight:bold;font-stretch:normal;font-family:Night Court;-inkscape-font-specification:Night Court Bold">Taller: %taller%</tspan></text>




<text
   xml:space="preserve"
   style="font-size:32px;font-style:normal;font-weight:normal;line-height:125%;letter-spacing:0px;word-spacing:0px;fill:#000000;fill-opacity:1;stroke:none;font-family:Sans"
   x="91.785309"
   y="-813.79462"
   id="text3207"
   sodipodi:linespacing="125%"
   transform="scale(1,-1)"><tspan
     sodipodi:role="line"
     id="tspan3209"
     x="91.785309"
     y="-813.79462"
     style="font-size:11.19999981px">%datalloc%</tspan></text>




<text
   xml:space="preserve"
   style="font-size:32px;font-style:normal;font-weight:normal;line-height:125%;letter-spacing:0px;word-spacing:0px;fill:#000000;fill-opacity:1;stroke:none;font-family:Sans"
   x="92.315781"
   y="-833.82593"
   id="text3211"
   sodipodi:linespacing="125%"
   transform="scale(1,-1)"><tspan
     sodipodi:role="line"
     id="tspan3213"
     x="92.315781"
     y="-833.82593"
     style="font-size:11.19999981px">Autors: %autors%</tspan></text>




<path
   d="m 90.997197,742.4768 516.560213,0 0,-25.879 -516.560213,0 0,25.879 z"
   style="fill:#ffffff;fill-opacity:1;fill-rule:nonzero;stroke:none"
   id="path26-2"
   inkscape:connector-curvature="0" /><path
   d="m 90.997197,768.3558 516.560213,0 0,-25.879 -516.560213,0 0,25.879 z"
   style="fill:#ececec;fill-opacity:1;fill-rule:nonzero;stroke:none"
   id="path30-9"
   inkscape:connector-curvature="0" /><path
   d="m 90.997197,716.5978 516.560213,0 0,-25.879 -516.560213,0 0,25.879 z"
   style="fill:#ececec;fill-opacity:1;fill-rule:nonzero;stroke:none"
   id="path32-2"
   inkscape:connector-curvature="0" /><path
   d="m 90.997197,690.85224 516.560213,0 0,-25.879 -516.560213,0 0,25.879 z"
   style="fill:#ffffff;fill-opacity:1;fill-rule:nonzero;stroke:none"
   id="path26-2-1"
   inkscape:connector-curvature="0" /><path
   d="m 90.997197,773.01789 516.560213,0 0,-4.73927 -516.560213,0 0,4.73927 z"
   style="fill:#333333;fill-opacity:1;fill-rule:nonzero;stroke:none"
   id="path30-9-87"
   inkscape:connector-curvature="0" /><path
   d="m 90.997197,638.2209 516.560213,0 0,-25.879 -516.560213,0 0,25.879 z"
   style="fill:#ffffff;fill-opacity:1;fill-rule:nonzero;stroke:none"
   id="path26-2-4"
   inkscape:connector-curvature="0" /><path
   d="m 90.997197,664.0999 516.560213,0 0,-25.879 -516.560213,0 0,25.879 z"
   style="fill:#ececec;fill-opacity:1;fill-rule:nonzero;stroke:none"
   id="path30-9-1"
   inkscape:connector-curvature="0" /><path
   d="m 90.997197,612.3419 516.560213,0 0,-25.879 -516.560213,0 0,25.879 z"
   style="fill:#ececec;fill-opacity:1;fill-rule:nonzero;stroke:none"
   id="path32-2-0"
   inkscape:connector-curvature="0" /><path
   d="m 90.997197,586.59634 516.560213,0 0,-25.879 -516.560213,0 0,25.879 z"
   style="fill:#ffffff;fill-opacity:1;fill-rule:nonzero;stroke:none"
   id="path26-2-1-4"
   inkscape:connector-curvature="0" /><path
   d="m 90.997197,429.67593 516.560213,0 0,-25.879 -516.560213,0 0,25.879 z"
   style="fill:#ffffff;fill-opacity:1;fill-rule:nonzero;stroke:none"
   id="path26-2-7"
   inkscape:connector-curvature="0" /><path
   d="m 90.997197,455.55493 516.560213,0 0,-25.879 -516.560213,0 0,25.879 z"
   style="fill:#ececec;fill-opacity:1;fill-rule:nonzero;stroke:none"
   id="path30-9-4"
   inkscape:connector-curvature="0" /><path
   d="m 90.997197,403.79693 516.560213,0 0,-25.879 -516.560213,0 0,25.879 z"
   style="fill:#ececec;fill-opacity:1;fill-rule:nonzero;stroke:none"
   id="path32-2-9"
   inkscape:connector-curvature="0" /><path
   d="m 90.997197,378.05137 516.560213,0 0,-25.879 -516.560213,0 0,25.879 z"
   style="fill:#ffffff;fill-opacity:1;fill-rule:nonzero;stroke:none"
   id="path26-2-1-2"
   inkscape:connector-curvature="0" /><path
   d="m 90.997197,325.03958 516.560213,0 0,-25.879 -516.560213,0 0,25.879 z"
   style="fill:#ffffff;fill-opacity:1;fill-rule:nonzero;stroke:none"
   id="path26-2-6"
   inkscape:connector-curvature="0" /><path
   d="m 90.997197,350.91858 516.560213,0 0,-25.879 -516.560213,0 0,25.879 z"
   style="fill:#ececec;fill-opacity:1;fill-rule:nonzero;stroke:none"
   id="path30-9-8"
   inkscape:connector-curvature="0" /><path
   d="m 90.997197,299.16058 516.560213,0 0,-25.879 -516.560213,0 0,25.879 z"
   style="fill:#ececec;fill-opacity:1;fill-rule:nonzero;stroke:none"
   id="path32-2-5"
   inkscape:connector-curvature="0" /><path
   d="m 90.997197,273.41502 516.560213,0 0,-25.879 -516.560213,0 0,25.879 z"
   style="fill:#ffffff;fill-opacity:1;fill-rule:nonzero;stroke:none"
   id="path26-2-1-40"
   inkscape:connector-curvature="0" /><path
   d="m 91.005898,247.38938 516.560212,0 0,-25.879 -516.560212,0 0,25.879 z"
   style="fill:#ececec;fill-opacity:1;fill-rule:nonzero;stroke:none"
   id="path32-2-5-0"
   inkscape:connector-curvature="0" /><path
   d="m 90.997197,534.31223 516.560213,0 0,-25.879 -516.560213,0 0,25.879 z"
   style="fill:#ffffff;fill-opacity:1;fill-rule:nonzero;stroke:none"
   id="path26-2-73"
   inkscape:connector-curvature="0" /><path
   d="m 90.997197,560.19123 516.560213,0 0,-25.879 -516.560213,0 0,25.879 z"
   style="fill:#ececec;fill-opacity:1;fill-rule:nonzero;stroke:none"
   id="path30-9-9"
   inkscape:connector-curvature="0" /><path
   d="m 90.997197,508.43323 516.560213,0 0,-25.879 -516.560213,0 0,25.879 z"
   style="fill:#ececec;fill-opacity:1;fill-rule:nonzero;stroke:none"
   id="path32-2-8"
   inkscape:connector-curvature="0" /><path
   d="m 90.997197,482.68767 516.560213,0 0,-25.879 -516.560213,0 0,25.879 z"
   style="fill:#ffffff;fill-opacity:1;fill-rule:nonzero;stroke:none"
   id="path26-2-1-8"
   inkscape:connector-curvature="0" /><text
   xml:space="preserve"
   style="font-size:32px;font-style:normal;font-weight:normal;line-height:125%;letter-spacing:0px;word-spacing:0px;fill:#000000;fill-opacity:1;stroke:none;font-family:Sans"
   x="96.98407"
   y="-777.93506"
   id="text3207-1"
   sodipodi:linespacing="125%"
   transform="scale(1,-1)"><tspan
     sodipodi:role="line"
     id="tspan3209-4"
     x="96.98407"
     y="-777.93506"
     style="font-size:11.19999981px">#</tspan></text>




<text
   xml:space="preserve"
   style="font-size:32px;font-style:normal;font-weight:normal;line-height:125%;letter-spacing:0px;word-spacing:0px;fill:#000000;fill-opacity:1;stroke:none;font-family:Sans"
   x="112.88766"
   y="-777.87762"
   id="text3207-1-3"
   sodipodi:linespacing="125%"
   transform="scale(1,-1)"><tspan
     sodipodi:role="line"
     id="tspan3209-4-9"
     x="112.88766"
     y="-777.87762"
     style="font-size:11.19999981px">NOM</tspan></text>




<text
   xml:space="preserve"
   style="font-size:32px;font-style:normal;font-weight:normal;line-height:125%;letter-spacing:0px;word-spacing:0px;fill:#000000;fill-opacity:1;stroke:none;font-family:Sans"
   x="519.12378"
   y="-776.84131"
   id="text3207-1-3-3"
   sodipodi:linespacing="125%"
   transform="scale(1,-1)"><tspan
     sodipodi:role="line"
     id="tspan3209-4-9-4"
     x="519.12378"
     y="-776.84131"
     style="font-size:11.19999981px">ASSISTÈNCIA</tspan></text>




<text
   xml:space="preserve"
   style="font-size:8.8px;font-style:normal;font-weight:normal;line-height:125%;letter-spacing:0px;word-spacing:0px;fill:#000000;fill-opacity:1;stroke:none;font-family:Sans"
   x="97.230164"
   y="-751.33936"
   id="text3207-4"
   sodipodi:linespacing="125%"
   transform="scale(1,-1)"><tspan
     sodipodi:role="line"
     id="tspan3209-41"
     x="97.230164"
     y="-751.33936"
     style="font-size:8.8px">%n0%</tspan></text>

<text
   xml:space="preserve"
   style="font-size:32px;font-style:normal;font-weight:normal;line-height:125%;letter-spacing:0px;word-spacing:0px;fill:#000000;fill-opacity:1;stroke:none;font-family:Sans"
   x="122.96889"
   y="-751.33936"
   id="text3207-4-3"
   sodipodi:linespacing="125%"
   transform="scale(1,-1)"><tspan
     sodipodi:role="line"
     id="tspan3209-41-2"
     x="122.96889"
     y="-751.33936"
     style="font-size:11.19999981px">%nom0%</tspan></text>

<text
   xml:space="preserve"
   style="font-size:8.8px;font-style:normal;font-weight:normal;line-height:125%;letter-spacing:0px;word-spacing:0px;fill:#000000;fill-opacity:1;stroke:none;font-family:Sans"
   x="97.230164"
   y="-725.46033"
   id="text3207-4-4"
   sodipodi:linespacing="125%"
   transform="scale(1,-1)"><tspan
     sodipodi:role="line"
     id="tspan3209-41-20"
     x="97.230164"
     y="-725.46033"
     style="font-size:8.8px">%n1%</tspan></text>

<text
   xml:space="preserve"
   style="font-size:32px;font-style:normal;font-weight:normal;line-height:125%;letter-spacing:0px;word-spacing:0px;fill:#000000;fill-opacity:1;stroke:none;font-family:Sans"
   x="122.96889"
   y="-725.46033"
   id="text3207-4-3-0"
   sodipodi:linespacing="125%"
   transform="scale(1,-1)"><tspan
     sodipodi:role="line"
     id="tspan3209-41-2-2"
     x="122.96889"
     y="-725.46033"
     style="font-size:11.19999981px">%nom1%</tspan></text>

<text
   xml:space="preserve"
   style="font-size:8.8px;font-style:normal;font-weight:normal;line-height:125%;letter-spacing:0px;word-spacing:0px;fill:#000000;fill-opacity:1;stroke:none;font-family:Sans"
   x="97.230164"
   y="-699.58136"
   id="text3207-4-5"
   sodipodi:linespacing="125%"
   transform="scale(1,-1)"><tspan
     sodipodi:role="line"
     id="tspan3209-41-0"
     x="97.230164"
     y="-699.58136"
     style="font-size:8.8px">%n2%</tspan></text>

<text
   xml:space="preserve"
   style="font-size:32px;font-style:normal;font-weight:normal;line-height:125%;letter-spacing:0px;word-spacing:0px;fill:#000000;fill-opacity:1;stroke:none;font-family:Sans"
   x="122.96889"
   y="-699.58136"
   id="text3207-4-3-02"
   sodipodi:linespacing="125%"
   transform="scale(1,-1)"><tspan
     sodipodi:role="line"
     id="tspan3209-41-2-1"
     x="122.96889"
     y="-699.58136"
     style="font-size:11.19999981px">%nom2%</tspan></text>

<text
   xml:space="preserve"
   style="font-size:8.8px;font-style:normal;font-weight:normal;line-height:125%;letter-spacing:0px;word-spacing:0px;fill:#000000;fill-opacity:1;stroke:none;font-family:Sans"
   x="97.230164"
   y="-673.83582"
   id="text3207-4-34"
   sodipodi:linespacing="125%"
   transform="scale(1,-1)"><tspan
     sodipodi:role="line"
     id="tspan3209-41-5"
     x="97.230164"
     y="-673.83582"
     style="font-size:8.8px">%n3%</tspan></text>

<text
   xml:space="preserve"
   style="font-size:32px;font-style:normal;font-weight:normal;line-height:125%;letter-spacing:0px;word-spacing:0px;fill:#000000;fill-opacity:1;stroke:none;font-family:Sans"
   x="122.96889"
   y="-673.83582"
   id="text3207-4-3-6"
   sodipodi:linespacing="125%"
   transform="scale(1,-1)"><tspan
     sodipodi:role="line"
     id="tspan3209-41-2-12"
     x="122.96889"
     y="-673.83582"
     style="font-size:11.19999981px">%nom3%</tspan></text>

<text
   xml:space="preserve"
   style="font-size:8.8px;font-style:normal;font-weight:normal;line-height:125%;letter-spacing:0px;word-spacing:0px;fill:#000000;fill-opacity:1;stroke:none;font-family:Sans"
   x="97.230164"
   y="-646.8905"
   id="text3207-4-0"
   sodipodi:linespacing="125%"
   transform="scale(1,-1)"><tspan
     sodipodi:role="line"
     id="tspan3209-41-4"
     x="97.230164"
     y="-646.8905"
     style="font-size:8.8px">%n4%</tspan></text>

<text
   xml:space="preserve"
   style="font-size:32px;font-style:normal;font-weight:normal;line-height:125%;letter-spacing:0px;word-spacing:0px;fill:#000000;fill-opacity:1;stroke:none;font-family:Sans"
   x="122.96889"
   y="-646.8905"
   id="text3207-4-3-5"
   sodipodi:linespacing="125%"
   transform="scale(1,-1)"><tspan
     sodipodi:role="line"
     id="tspan3209-41-2-7"
     x="122.96889"
     y="-646.8905"
     style="font-size:11.19999981px">%nom4%</tspan></text>

<text
   xml:space="preserve"
   style="font-size:8.8px;font-style:normal;font-weight:normal;line-height:125%;letter-spacing:0px;word-spacing:0px;fill:#000000;fill-opacity:1;stroke:none;font-family:Sans"
   x="97.230164"
   y="-621.01154"
   id="text3207-4-4-3"
   sodipodi:linespacing="125%"
   transform="scale(1,-1)"><tspan
     sodipodi:role="line"
     id="tspan3209-41-20-8"
     x="97.230164"
     y="-621.01154"
     style="font-size:8.8px">%n5%</tspan></text>

<text
   xml:space="preserve"
   style="font-size:32px;font-style:normal;font-weight:normal;line-height:125%;letter-spacing:0px;word-spacing:0px;fill:#000000;fill-opacity:1;stroke:none;font-family:Sans"
   x="122.96889"
   y="-621.01154"
   id="text3207-4-3-0-9"
   sodipodi:linespacing="125%"
   transform="scale(1,-1)"><tspan
     sodipodi:role="line"
     id="tspan3209-41-2-2-0"
     x="122.96889"
     y="-621.01154"
     style="font-size:11.19999981px">%nom5%</tspan></text>

<text
   xml:space="preserve"
   style="font-size:8.8px;font-style:normal;font-weight:normal;line-height:125%;letter-spacing:0px;word-spacing:0px;fill:#000000;fill-opacity:1;stroke:none;font-family:Sans"
   x="97.230164"
   y="-595.13251"
   id="text3207-4-5-5"
   sodipodi:linespacing="125%"
   transform="scale(1,-1)"><tspan
     sodipodi:role="line"
     id="tspan3209-41-0-4"
     x="97.230164"
     y="-595.13251"
     style="font-size:8.8px">%n6%</tspan></text>

<text
   xml:space="preserve"
   style="font-size:32px;font-style:normal;font-weight:normal;line-height:125%;letter-spacing:0px;word-spacing:0px;fill:#000000;fill-opacity:1;stroke:none;font-family:Sans"
   x="122.96889"
   y="-595.13251"
   id="text3207-4-3-02-2"
   sodipodi:linespacing="125%"
   transform="scale(1,-1)"><tspan
     sodipodi:role="line"
     id="tspan3209-41-2-1-2"
     x="122.96889"
     y="-595.13251"
     style="font-size:11.19999981px">%nom6%</tspan></text>

<text
   xml:space="preserve"
   style="font-size:8.8px;font-style:normal;font-weight:normal;line-height:125%;letter-spacing:0px;word-spacing:0px;fill:#000000;fill-opacity:1;stroke:none;font-family:Sans"
   x="97.230164"
   y="-569.38696"
   id="text3207-4-34-3"
   sodipodi:linespacing="125%"
   transform="scale(1,-1)"><tspan
     sodipodi:role="line"
     id="tspan3209-41-5-8"
     x="97.230164"
     y="-569.38696"
     style="font-size:8.8px">%n7%</tspan></text>

<text
   xml:space="preserve"
   style="font-size:32px;font-style:normal;font-weight:normal;line-height:125%;letter-spacing:0px;word-spacing:0px;fill:#000000;fill-opacity:1;stroke:none;font-family:Sans"
   x="122.96889"
   y="-569.38696"
   id="text3207-4-3-6-0"
   sodipodi:linespacing="125%"
   transform="scale(1,-1)"><tspan
     sodipodi:role="line"
     id="tspan3209-41-2-12-3"
     x="122.96889"
     y="-569.38696"
     style="font-size:11.19999981px">%nom7%</tspan></text>

<text
   xml:space="preserve"
   style="font-size:8.8px;font-style:normal;font-weight:normal;line-height:125%;letter-spacing:0px;word-spacing:0px;fill:#000000;fill-opacity:1;stroke:none;font-family:Sans"
   x="97.230164"
   y="-543.51447"
   id="text3207-4-9"
   sodipodi:linespacing="125%"
   transform="scale(1,-1)"><tspan
     sodipodi:role="line"
     id="tspan3209-41-44"
     x="97.230164"
     y="-543.51447"
     style="font-size:8.8px">%n8%</tspan></text>

<text
   xml:space="preserve"
   style="font-size:32px;font-style:normal;font-weight:normal;line-height:125%;letter-spacing:0px;word-spacing:0px;fill:#000000;fill-opacity:1;stroke:none;font-family:Sans"
   x="122.96889"
   y="-543.51447"
   id="text3207-4-3-2"
   sodipodi:linespacing="125%"
   transform="scale(1,-1)"><tspan
     sodipodi:role="line"
     id="tspan3209-41-2-8"
     x="122.96889"
     y="-543.51447"
     style="font-size:11.19999981px">%nom8%</tspan></text>

<text
   xml:space="preserve"
   style="font-size:8.8px;font-style:normal;font-weight:normal;line-height:125%;letter-spacing:0px;word-spacing:0px;fill:#000000;fill-opacity:1;stroke:none;font-family:Sans"
   x="97.230164"
   y="-517.63544"
   id="text3207-4-4-6"
   sodipodi:linespacing="125%"
   transform="scale(1,-1)"><tspan
     sodipodi:role="line"
     id="tspan3209-41-20-0"
     x="97.230164"
     y="-517.63544"
     style="font-size:8.8px">%n9%</tspan></text>

<text
   xml:space="preserve"
   style="font-size:32px;font-style:normal;font-weight:normal;line-height:125%;letter-spacing:0px;word-spacing:0px;fill:#000000;fill-opacity:1;stroke:none;font-family:Sans"
   x="122.96889"
   y="-517.63544"
   id="text3207-4-3-0-4"
   sodipodi:linespacing="125%"
   transform="scale(1,-1)"><tspan
     sodipodi:role="line"
     id="tspan3209-41-2-2-07"
     x="122.96889"
     y="-517.63544"
     style="font-size:11.19999981px">%nom9%</tspan></text>

<text
   xml:space="preserve"
   style="font-size:8.8px;font-style:normal;font-weight:normal;line-height:125%;letter-spacing:0px;word-spacing:0px;fill:#000000;fill-opacity:1;stroke:none;font-family:Sans"
   x="97.230164"
   y="-491.75647"
   id="text3207-4-5-0"
   sodipodi:linespacing="125%"
   transform="scale(1,-1)"><tspan
     sodipodi:role="line"
     id="tspan3209-41-0-47"
     x="97.230164"
     y="-491.75647"
     style="font-size:8.8px">%n10%</tspan></text>

<text
   xml:space="preserve"
   style="font-size:32px;font-style:normal;font-weight:normal;line-height:125%;letter-spacing:0px;word-spacing:0px;fill:#000000;fill-opacity:1;stroke:none;font-family:Sans"
   x="122.96889"
   y="-491.75647"
   id="text3207-4-3-02-29"
   sodipodi:linespacing="125%"
   transform="scale(1,-1)"><tspan
     sodipodi:role="line"
     id="tspan3209-41-2-1-4"
     x="122.96889"
     y="-491.75647"
     style="font-size:11.19999981px">%nom10%</tspan></text>

<text
   xml:space="preserve"
   style="font-size:8.8px;font-style:normal;font-weight:normal;line-height:125%;letter-spacing:0px;word-spacing:0px;fill:#000000;fill-opacity:1;stroke:none;font-family:Sans"
   x="97.230164"
   y="-466.01089"
   id="text3207-4-34-1"
   sodipodi:linespacing="125%"
   transform="scale(1,-1)"><tspan
     sodipodi:role="line"
     id="tspan3209-41-5-7"
     x="97.230164"
     y="-466.01089"
     style="font-size:8.8px">%n11%</tspan></text>

<text
   xml:space="preserve"
   style="font-size:32px;font-style:normal;font-weight:normal;line-height:125%;letter-spacing:0px;word-spacing:0px;fill:#000000;fill-opacity:1;stroke:none;font-family:Sans"
   x="122.96889"
   y="-466.01089"
   id="text3207-4-3-6-6"
   sodipodi:linespacing="125%"
   transform="scale(1,-1)"><tspan
     sodipodi:role="line"
     id="tspan3209-41-2-12-4"
     x="122.96889"
     y="-466.01089"
     style="font-size:11.19999981px">%nom11%</tspan></text>

<text
   xml:space="preserve"
   style="font-size:8.8px;font-style:normal;font-weight:normal;line-height:125%;letter-spacing:0px;word-spacing:0px;fill:#000000;fill-opacity:1;stroke:none;font-family:Sans"
   x="97.230164"
   y="-438.87814"
   id="text3207-4-49"
   sodipodi:linespacing="125%"
   transform="scale(1,-1)"><tspan
     sodipodi:role="line"
     id="tspan3209-41-7"
     x="97.230164"
     y="-438.87814"
     style="font-size:8.8px">%n12%</tspan></text>

<text
   xml:space="preserve"
   style="font-size:32px;font-style:normal;font-weight:normal;line-height:125%;letter-spacing:0px;word-spacing:0px;fill:#000000;fill-opacity:1;stroke:none;font-family:Sans"
   x="122.96889"
   y="-438.87814"
   id="text3207-4-3-3"
   sodipodi:linespacing="125%"
   transform="scale(1,-1)"><tspan
     sodipodi:role="line"
     id="tspan3209-41-2-3"
     x="122.96889"
     y="-438.87814"
     style="font-size:11.19999981px">%nom12%</tspan></text>

<text
   xml:space="preserve"
   style="font-size:8.8px;font-style:normal;font-weight:normal;line-height:125%;letter-spacing:0px;word-spacing:0px;fill:#000000;fill-opacity:1;stroke:none;font-family:Sans"
   x="97.230164"
   y="-412.99911"
   id="text3207-4-4-7"
   sodipodi:linespacing="125%"
   transform="scale(1,-1)"><tspan
     sodipodi:role="line"
     id="tspan3209-41-20-4"
     x="97.230164"
     y="-412.99911"
     style="font-size:8.8px">%n13%</tspan></text>

<text
   xml:space="preserve"
   style="font-size:32px;font-style:normal;font-weight:normal;line-height:125%;letter-spacing:0px;word-spacing:0px;fill:#000000;fill-opacity:1;stroke:none;font-family:Sans"
   x="122.96889"
   y="-412.99911"
   id="text3207-4-3-0-7"
   sodipodi:linespacing="125%"
   transform="scale(1,-1)"><tspan
     sodipodi:role="line"
     id="tspan3209-41-2-2-3"
     x="122.96889"
     y="-412.99911"
     style="font-size:11.19999981px">%nom13%</tspan></text>

<text
   xml:space="preserve"
   style="font-size:8.8px;font-style:normal;font-weight:normal;line-height:125%;letter-spacing:0px;word-spacing:0px;fill:#000000;fill-opacity:1;stroke:none;font-family:Sans"
   x="97.230164"
   y="-387.12012"
   id="text3207-4-5-3"
   sodipodi:linespacing="125%"
   transform="scale(1,-1)"><tspan
     sodipodi:role="line"
     id="tspan3209-41-0-5"
     x="97.230164"
     y="-387.12012"
     style="font-size:8.8px">%n14%</tspan></text>

<text
   xml:space="preserve"
   style="font-size:32px;font-style:normal;font-weight:normal;line-height:125%;letter-spacing:0px;word-spacing:0px;fill:#000000;fill-opacity:1;stroke:none;font-family:Sans"
   x="122.96889"
   y="-387.12012"
   id="text3207-4-3-02-3"
   sodipodi:linespacing="125%"
   transform="scale(1,-1)"><tspan
     sodipodi:role="line"
     id="tspan3209-41-2-1-7"
     x="122.96889"
     y="-387.12012"
     style="font-size:11.19999981px">%nom14%</tspan></text>

<text
   xml:space="preserve"
   style="font-size:8.8px;font-style:normal;font-weight:normal;line-height:125%;letter-spacing:0px;word-spacing:0px;fill:#000000;fill-opacity:1;stroke:none;font-family:Sans"
   x="97.230164"
   y="-361.37457"
   id="text3207-4-34-5"
   sodipodi:linespacing="125%"
   transform="scale(1,-1)"><tspan
     sodipodi:role="line"
     id="tspan3209-41-5-1"
     x="97.230164"
     y="-361.37457"
     style="font-size:8.8px">%n15%</tspan></text>

<text
   xml:space="preserve"
   style="font-size:32px;font-style:normal;font-weight:normal;line-height:125%;letter-spacing:0px;word-spacing:0px;fill:#000000;fill-opacity:1;stroke:none;font-family:Sans"
   x="122.96889"
   y="-361.37457"
   id="text3207-4-3-6-2"
   sodipodi:linespacing="125%"
   transform="scale(1,-1)"><tspan
     sodipodi:role="line"
     id="tspan3209-41-2-12-7"
     x="122.96889"
     y="-361.37457"
     style="font-size:11.19999981px">%nom15%</tspan></text>

<text
   xml:space="preserve"
   style="font-size:8.8px;font-style:normal;font-weight:normal;line-height:125%;letter-spacing:0px;word-spacing:0px;fill:#000000;fill-opacity:1;stroke:none;font-family:Sans"
   x="97.230164"
   y="-333.56235"
   id="text3207-4-2"
   sodipodi:linespacing="125%"
   transform="scale(1,-1)"><tspan
     sodipodi:role="line"
     id="tspan3209-41-04"
     x="97.230164"
     y="-333.56235"
     style="font-size:8.8px">%n16%</tspan></text>

<text
   xml:space="preserve"
   style="font-size:32px;font-style:normal;font-weight:normal;line-height:125%;letter-spacing:0px;word-spacing:0px;fill:#000000;fill-opacity:1;stroke:none;font-family:Sans"
   x="122.96889"
   y="-333.56235"
   id="text3207-4-3-8"
   sodipodi:linespacing="125%"
   transform="scale(1,-1)"><tspan
     sodipodi:role="line"
     id="tspan3209-41-2-9"
     x="122.96889"
     y="-333.56235"
     style="font-size:11.19999981px">%nom16%</tspan></text>

<text
   xml:space="preserve"
   style="font-size:8.8px;font-style:normal;font-weight:normal;line-height:125%;letter-spacing:0px;word-spacing:0px;fill:#000000;fill-opacity:1;stroke:none;font-family:Sans"
   x="97.230164"
   y="-307.68335"
   id="text3207-4-4-4"
   sodipodi:linespacing="125%"
   transform="scale(1,-1)"><tspan
     sodipodi:role="line"
     id="tspan3209-41-20-7"
     x="97.230164"
     y="-307.68335"
     style="font-size:8.8px">%n17%</tspan></text>

<text
   xml:space="preserve"
   style="font-size:32px;font-style:normal;font-weight:normal;line-height:125%;letter-spacing:0px;word-spacing:0px;fill:#000000;fill-opacity:1;stroke:none;font-family:Sans"
   x="122.96889"
   y="-307.68335"
   id="text3207-4-3-0-1"
   sodipodi:linespacing="125%"
   transform="scale(1,-1)"><tspan
     sodipodi:role="line"
     id="tspan3209-41-2-2-05"
     x="122.96889"
     y="-307.68335"
     style="font-size:11.19999981px">%nom17%</tspan></text>

<text
   xml:space="preserve"
   style="font-size:8.8px;font-style:normal;font-weight:normal;line-height:125%;letter-spacing:0px;word-spacing:0px;fill:#000000;fill-opacity:1;stroke:none;font-family:Sans"
   x="97.230164"
   y="-281.80435"
   id="text3207-4-5-6"
   sodipodi:linespacing="125%"
   transform="scale(1,-1)"><tspan
     sodipodi:role="line"
     id="tspan3209-41-0-8"
     x="97.230164"
     y="-281.80435"
     style="font-size:8.8px">%n18%</tspan></text>

<text
   xml:space="preserve"
   style="font-size:32px;font-style:normal;font-weight:normal;line-height:125%;letter-spacing:0px;word-spacing:0px;fill:#000000;fill-opacity:1;stroke:none;font-family:Sans"
   x="122.96889"
   y="-281.80435"
   id="text3207-4-3-02-0"
   sodipodi:linespacing="125%"
   transform="scale(1,-1)"><tspan
     sodipodi:role="line"
     id="tspan3209-41-2-1-1"
     x="122.96889"
     y="-281.80435"
     style="font-size:11.19999981px">%nom18%</tspan></text>

<text
   xml:space="preserve"
   style="font-size:8.8px;font-style:normal;font-weight:normal;line-height:125%;letter-spacing:0px;word-spacing:0px;fill:#000000;fill-opacity:1;stroke:none;font-family:Sans"
   x="97.230164"
   y="-256.05878"
   id="text3207-4-34-6"
   sodipodi:linespacing="125%"
   transform="scale(1,-1)"><tspan
     sodipodi:role="line"
     id="tspan3209-41-5-0"
     x="97.230164"
     y="-256.05878"
     style="font-size:8.8px">%n19%</tspan></text>

<text
   xml:space="preserve"
   style="font-size:32px;font-style:normal;font-weight:normal;line-height:125%;letter-spacing:0px;word-spacing:0px;fill:#000000;fill-opacity:1;stroke:none;font-family:Sans"
   x="122.96889"
   y="-256.05878"
   id="text3207-4-3-6-8"
   sodipodi:linespacing="125%"
   transform="scale(1,-1)"><tspan
     sodipodi:role="line"
     id="tspan3209-41-2-12-5"
     x="122.96889"
     y="-256.05878"
     style="font-size:11.19999981px">%nom19%</tspan></text>

<text
   xml:space="preserve"
   style="font-size:8.8px;font-style:normal;font-weight:normal;line-height:125%;letter-spacing:0px;word-spacing:0px;fill:#000000;fill-opacity:1;stroke:none;font-family:Sans"
   x="97.230164"
   y="-230.94164"
   id="text3207-4-34-6-0"
   sodipodi:linespacing="125%"
   transform="scale(1,-1)"><tspan
     sodipodi:role="line"
     id="tspan3209-41-5-0-0"
     x="97.230164"
     y="-230.94164"
     style="font-size:8.8px">%n20%</tspan></text>

<text
   xml:space="preserve"
   style="font-size:32px;font-style:normal;font-weight:normal;line-height:125%;letter-spacing:0px;word-spacing:0px;fill:#000000;fill-opacity:1;stroke:none;font-family:Sans"
   x="122.96889"
   y="-230.94164"
   id="text3207-4-3-6-8-6"
   sodipodi:linespacing="125%"
   transform="scale(1,-1)"><tspan
     sodipodi:role="line"
     id="tspan3209-41-2-12-5-3"
     x="122.96889"
     y="-230.94164"
     style="font-size:11.19999981px">%nom20%</tspan></text>

<text
   xml:space="preserve"
   style="font-size:32px;font-style:normal;font-weight:normal;line-height:125%;letter-spacing:0px;word-spacing:0px;fill:#000000;fill-opacity:1;stroke:none;font-family:Sans"
   x="483.90585"
   y="-813.81702"
   id="text3207-9"
   sodipodi:linespacing="125%"
   transform="scale(1,-1)"><tspan
     sodipodi:role="line"
     id="tspan3209-40"
     x="483.90585"
     y="-813.81702"
     style="font-size:11.19999981px">Max. inscrits: %max%</tspan></text>
</g></g></svg>